<svg id="Layer_1" data-name="Layer 1" xmlns="http://www.w3.org/2000/svg" viewBox="0 0 417.19 60.52"><defs><style>.cls-1{fill:#666}.cls-2{fill:#6cadca}</style></defs><path class="cls-1" d="M42.49 18.58h2.35v4.68h-4.69v-2.34H37.8v-2.34h-9.37v2.34h-2.34v4.69h2.34V28h11.72v2.34h2.34v2.35h2.35V42h-2.35v2.35h-2.34v2.35H26.09v-2.34h-2.35V42H21.4v-4.67h4.69v2.34h2.34V42h9.37v-2.33h2.35V35H37.8v-2.36H26.09v-2.35h-2.35V28H21.4v-9.42h2.34v-2.35h2.35v-2.34h14.06v2.34h2.34zM54.21 46.7v-2.34h-2.34V42h-2.35V25.61h2.35v-2.35h2.34v-2.34h14.06v2.34h2.35v2.35H73V42h-2.38v2.35h-2.35v2.35zm2.34-4.7h9.38v-2.33h2.34V28h-2.34v-2.39h-9.38V28h-2.34v11.67h2.34zM91.71 46.7H87V25.61h-7v-4.69h7v-4.69h2.35v-2.34h9.37v4.69h-7v2.34h7v4.69h-7zM122.18 42h2.34v4.7h-4.68v-2.34h-2.35V42h-2.34V25.61h-4.69v-4.69h4.69v-7h4.69v7h4.68v4.69h-4.68v14.06h2.34zM133.9 20.92h4.69v18.75h2.34V42h2.34V30.29H148V42h2.34v-2.33h2.35V20.92h4.69V42H155v2.35h-2.34v2.35H148v-2.34h-4.69v2.34h-4.68v-2.34h-2.35V42h-2.38zM166.71 46.7v-2.34h-2.34V42H162v-9.36h2.35v-2.35h2.34V28h11.72v2.34h2.34v-4.73h-2.34v-2.35h-11.7v-4.68h14.06v2.34h2.35v2.34h2.34V46.7h-4.69v-2.34h-2.34v2.34zm2.34-4.7h9.38v-2.33h2.34V35h-2.34v-2.36h-9.38V35h-2.34v4.69h2.34zM194.84 32.64V46.7h-4.69V20.92h4.69v4.69h2.34v-2.35h2.34v-2.34h9.38v2.34h2.34v2.35h2.35v4.68h-4.69V28h-2.35v-2.39h-4.68V28h-2.35v2.34h-2.34v2.35zM241.71 39.67V42h-2.34v2.35H237v2.35h-14v-2.34h-2.34V42h-2.35V25.61h2.35v-2.35H223v-2.34h14v2.34h2.35v2.35h2.34v7h-2.34V35H223v4.69h2.34V42h9.38v-2.33zM223 28v2.34h14V28h-2.34v-2.39h-9.36V28zM274.52 46.7V13.89h18.75v2.34h2.35v2.35H298V28h-2.34v4.69H298V42h-2.34v2.35h-2.35v2.35zm4.69-18.7h11.72v-2.39h2.34v-4.69h-2.34v-2.34h-11.72zm0 14.06h11.72v-2.39h2.34V35h-2.34v-2.36h-11.72zM316.71 13.89V46.7H312V13.89zM377.65 39.67v-2.34h4.69V42H380v2.35h-2.34v2.35h-14.07v-2.34h-2.35V42h-2.34V25.61h2.34v-2.35h2.35v-2.34h14.06v2.34H380v2.35h2.35v4.68h-4.69V28h-2.36v-2.39h-9.37V28h-2.34v11.67h2.34V42h9.37v-2.33zM391.71 42v4.7H387V13.89h4.69V35h2.34v-2.36h2.35v-2.35h2.34V28h2.35v-2.39h2.34v-2.35h2.34v-2.34h4.69v4.69h-2.34V28h-2.35v2.34h-2.34v2.35h-2.34V35h2.34v2.35h2.34v2.34h2.35V42h2.34v4.7h-4.69v-2.34h-2.34V42h-2.34v-2.33h-2.35v-2.34h-2.32v2.34h-2.35V42zM417.49 42h-2.34v-4.67h4.69v2.34h2.34V42h9.37v-4.67h-4.68V35h-4.69v-2.36h-4.69v-2.35h-2.34v-4.68h2.34v-2.35h2.35v-2.34h14.06v2.34h2.34v2.35h2.35v4.68h-4.69V28h-2.35v-2.39h-9.37v4.68h7v2.35h4.69V35h2.34v2.35h2.35V42h-2.35v2.35h-2.31v2.35h-14.06v-2.34h-2.35z" transform="translate(-21.4 -13.89)"/><path class="cls-2" d="M27.6 62.11h-4.1v-2h10.25v2h-4.1v12.3h-2zM37.85 68.26v6.15H35.8V60.06h2.05v5.12h1v-1h1v-1H43v1h1v1h1v1h1v8.2h-2v-7.15h-1v-1h-1v-1h-1v1h-1v1h-1v1zM58.36 71.33v1h-1v1h-1v1h-6.2v-1h-1v-1h-1v-7.15h1v-1h1v-1h6.15v1h1v1h1v3.08h-1v1h-7.15v2h1v1h4.11v-1zm-8.2-5.12v1h6.15v-1h-1v-1h-4.13v1zM77.84 60.06V58h3.08v3.08h-2v4.1h-1v2h1v4.1h2v3.08h-3.08v-2h-1v-5.13h-2v-2h2v-5.17zM85 74.41V60.06h8.2v1h1v1h1v10.3h-1v1h-1v1zm2-12.3v10.25h5.2v-1h1v-8.2h-1v-1zM107.58 71.33v1h-1v1h-1v1h-6.2v-1h-1v-1h-1v-7.15h1v-1h1v-1h6.15v1h1v1h1v3.08h-1v1h-7.15v2h1v1h4.1v-1zm-8.2-5.12v1h6.15v-1h-1v-1h-4.1v1zM109.63 63.13h2.05v6.15h1v1h1v1h2v-1h1v-1h1v-6.15h2v7.18h-1v1h-1v1h-1v1h-1v1h-2v-1h-1v-1h-1v-1h-1v-1h-1zM132.19 71.33v1h-1v1h-1v1H124v-1h-1v-1h-1v-7.15h1v-1h1v-1h6.15v1h1v1h1v3.08h-1v1H124v2h1v1h4.1v-1zM124 66.21v1h6.15v-1h-1v-1H125v1zM140.39 60.06v14.35h-2V60.06zM148.6 74.41v-1h-1v-1h-1v-7.23h1v-1h1v-1h6.15v1h1v1h1v7.18h-1v1h-1v1zm1-2h4.1v-1h1v-5.2h-1v-1h-4.1v1h-1v5.12h1zM160.9 70.31v4.1h-2.05v-12.3h2.05v1h1v-1h5.12v1h1v1h1v5.12h-1v1h-1v1h-5.12v-1zm6.15-5.13h-1v-1H163v1h-1v3.08h1v1h3v-1h1zM181.41 71.33v1h-1v1h-1v1h-6.15v-1h-1v-1h-1v-7.15h1v-1h1v-1h6.15v1h1v1h1v3.08h-1v1h-7.17v2h1v1h4.1v-1zm-8.2-5.12v1h6.15v-1h-1v-1h-4.1v1zM185.51 68.26v6.15h-2V63.13h2v2.05h1v-1h1v-1h4.1v1h1v1h1v2h-2.05v-1h-1v-1h-2v1h-1v1h-1v1zM196.79 72.36h-1v-2h2.05v1h1v1h4.1v-2h-2.05v-1h-2v-1h-2.05v-1h-1v-2h1v-1h1v-1H204v1h1v1h1v2h-2v-1h-1v-1h-4.1v2h3.08v1H204v1h1v1h1v2h-1v1h-1v1h-6.16v-1h-1zM214.22 60.06v5.12h2.05v2h-2.05v5.13h-1v2h-3.08v-2.98h2v-4.1h1v-2h-1v-4.1h-2V58h3.08v2.06zM234.73 68.26v6.15h-2V60.06h8.2v1h1v1h1v4.1h-1v1h-1v1zm0-6.15v4.1h5.13v-1h1v-2.08h-1v-1zM251.13 60.06v14.35h-2V60.06zM259.34 74.41v-1h-1v-1h-1v-4.1h1v-1h1v-1h5.12v1h1v-2h-1v-1h-5.12v-2h6.15v1h1v1h1v10.1h-2.05v-1h-1v1zm1-2h4.1v-1h1v-2h-1v-1h-4.1v1h-1v2h1zM271.64 74.41v-2h5.13v-1h1v-3.15h-1v1h-1v1h-4.1v-1h-1v-1h-1v-6.15h2.05v5.12h1v1h2.05v-1h1v-1h1v-2h1v-2h2.06v10.13h-1v1h-1v1zM284 73.39h-1v-2.06h2v1h4.1v-1h1v-3.07h-1v1H284v-1h-1v-1h-1v-3.1h1v-1h1v-1h6.15v1h1v1h1v8.2h-1v1h-1v1H284zm6.15-7.18v-1h-1v-1H285v1h-1v1h1v1h4.1v-1zM296.25 68.26v6.15h-2.05V63.13h2.05v2.05h1v-1h1v-1h4.1v1h1v1h1v2h-1.95v-1h-1v-1h-2.05v1h-1v1h-1v1zM308.56 74.41v-1h-1v-1h-1v-7.23h1v-1h1v-1h6.15v1h1v1h1v7.18h-1v1h-1v1zm1-2h4.1v-1h1v-5.2h-1v-1h-4.1v1h-1v5.12h1zM318.81 63.13h2.05v8.2h1v1H326v-1h1v-8.2h2.05v9.23h-1v1h-1v1h-6.15v-1h-1v-1h-1zM333.17 66.21v8.2h-2.05V63.13h2.05v1h1v-1h5.13v1h1v1h1v9.23h-2.05v-8.2h-1v-1h-4.1v1zM351.62 65.18v-5.12h2.05v14.35h-2.05v-2h-1v1h-1v1h-3.12v-1h-1v-1h-1v-1h-1v-5.2h1v-1h1v-1h1v-1h3.07v1h1v1zm-5.12 6.15h1v1h1v-1h1v-1h1v-3.1h-1v-1h-1v-1h-1v1h-1v1h-1v3.08h1zM352 27.54l-6.09 19.92L326 41.37l6-19.92zm-7 18.36l5.36-17.53L332.87 23l-5.36 17.53zm-2-13.67l-1.74 5.69L335 36l1.74-5.7z" transform="translate(-21.4 -13.89)"/></svg>